<svg width="18" height="20" viewBox="0 0 18 20" fill="none" xmlns="http://www.w3.org/2000/svg">
<path d="M8.99999 0.496338C13.0499 0.496338 16.3567 3.69108 16.4958 7.74539L16.5 7.99634V12.0933L17.88 15.2493C17.949 15.4072 17.9847 15.5777 17.9847 15.7501C17.9847 16.4405 17.425 17.0001 16.7347 17.0001L12 17.0016C12 18.6585 10.6568 20.0016 8.99999 20.0016C7.40231 20.0016 6.09633 18.7527 6.00508 17.1779L5.99954 16.9993L1.27485 17.0001C1.10351 17.0001 0.934005 16.9649 0.776852 16.8966C0.14365 16.6216 -0.146699 15.8853 0.12834 15.2521L1.49999 12.0943V7.99623C1.50059 3.84144 4.85208 0.496338 8.99999 0.496338ZM10.4995 16.9993L7.49999 17.0016C7.49999 17.83 8.17156 18.5016 8.99999 18.5016C9.77969 18.5016 10.4204 17.9067 10.4931 17.1461L10.4995 16.9993ZM8.99999 1.99634C5.67983 1.99634 3.00047 4.67059 2.99999 7.99634V12.406L1.65601 15.5001H16.3525L15 12.4069L15.0001 8.00919L14.9964 7.78399C14.8853 4.55052 12.2416 1.99634 8.99999 1.99634Z" fill="#616161"/>
</svg>
